<svg xmlns="http://www.w3.org/2000/svg" version="1.1" xmlns:xlink="http://www.w3.org/1999/xlink" xmlns:svgjs="http://svgjs.com/svgjs" viewBox="0 0 40 40" width="40" height="40"><title>Exported from Streamline App (https://app.streamlineicons.com)</title><g transform="matrix(1.6666666666666667,0,0,1.6666666666666667,0,0)"><path d="M9.003,9.497c0.552,0,1,0.448,1,1s-0.448,1-1,1s-1-0.448-1-1S8.451,9.497,9.003,9.497z M15.003,9.497c0.552,0,1,0.448,1,1 s-0.448,1-1,1s-1-0.448-1-1S14.451,9.497,15.003,9.497z M19.007,11.568c-0.205-0.091-0.325-0.307-0.293-0.529 c0.186-1.279-0.299-2.564-1.285-3.4c-0.112-0.095-0.176-0.234-0.176-0.381V5.85c0-0.138-0.112-0.25-0.25-0.25 c-0.031,0-0.062,0.006-0.092,0.018l-4.006,1.575c-0.56,0.221-1.182,0.232-1.749,0.03l-4.07-1.442 c-0.129-0.046-0.272,0.021-0.318,0.15c-0.01,0.027-0.015,0.056-0.015,0.085v1.243c0,0.147-0.064,0.286-0.176,0.381 C5.736,8.352,5.252,9.398,5.253,10.5c0,0.18,0.013,0.361,0.039,0.539c0.032,0.223-0.088,0.44-0.294,0.53 C3.635,12.166,2.753,13.512,2.75,15v2.25c0.003,2.496,1.613,4.706,3.988,5.474c0.131,0.043,0.272-0.03,0.315-0.161 c0.024-0.073,0.012-0.153-0.031-0.217C6.354,21.358,5.999,20.192,6,19c0-0.276,0.224-0.5,0.5-0.5S7,18.724,7,19 c0,2.761,2.239,5,5,5s5-2.239,5-5c0-0.276,0.224-0.5,0.5-0.5S18,18.724,18,19c0.001,1.192-0.354,2.358-1.022,3.346 c-0.077,0.114-0.047,0.27,0.067,0.347c0.064,0.043,0.144,0.055,0.217,0.031c2.375-0.768,3.985-2.978,3.988-5.474V15 C21.248,13.513,20.368,12.167,19.007,11.568z M9,12.747c-1.243,0-2.25-1.007-2.25-2.25S7.757,8.247,9,8.247s2.25,1.007,2.25,2.25 C11.248,11.739,10.242,12.745,9,12.747z M13.172,14.081l-0.634,0.929c-0.227,0.297-0.652,0.354-0.949,0.127 c-0.048-0.037-0.091-0.079-0.127-0.127l-0.633-0.928c-0.078-0.114-0.049-0.269,0.065-0.348c0.004-0.003,0.009-0.006,0.013-0.008 c0.337-0.201,0.641-0.454,0.9-0.75c0.091-0.104,0.249-0.114,0.353-0.023c0.008,0.007,0.016,0.015,0.023,0.023 c0.259,0.295,0.563,0.548,0.9,0.75c0.119,0.071,0.158,0.225,0.086,0.344c-0.002,0.004-0.005,0.008-0.007,0.012L13.172,14.081z M15,12.747c-1.243,0-2.25-1.007-2.25-2.25s1.007-2.25,2.25-2.25s2.25,1.007,2.25,2.25C17.248,11.739,16.242,12.745,15,12.747z M4.75,7.434c0.552,0,1-0.448,1-1V4.6c0.001-0.08,0.04-0.154,0.106-0.2c0.066-0.047,0.151-0.059,0.228-0.032l5.405,1.912 c0.341,0.122,0.714,0.116,1.05-0.017l6.052-2.381c0.387-0.149,0.579-0.583,0.431-0.969c-0.076-0.198-0.233-0.355-0.431-0.431 L12.53,0.105c-0.337-0.132-0.709-0.138-1.05-0.017l-7.4,2.625c-0.2,0.071-0.333,0.259-0.333,0.471v3.25c0,0.552,0.448,1,1,1 C4.748,7.434,4.749,7.434,4.75,7.434z" stroke="none" fill="#ffffff" stroke-width="0" stroke-linecap="round" stroke-linejoin="round"></path></g></svg>